<?xml version="1.0" encoding="UTF-8" standalone="no"?>
<!-- Created with Inkscape (http://www.inkscape.org/) -->

<svg
   xmlns:dc="http://purl.org/dc/elements/1.1/"
   xmlns:cc="http://creativecommons.org/ns#"
   xmlns:rdf="http://www.w3.org/1999/02/22-rdf-syntax-ns#"
   xmlns:svg="http://www.w3.org/2000/svg"
   xmlns="http://www.w3.org/2000/svg"
   xmlns:sodipodi="http://sodipodi.sourceforge.net/DTD/sodipodi-0.dtd"
   xmlns:inkscape="http://www.inkscape.org/namespaces/inkscape"
   width="512"
   height="512"
   viewBox="0 0 135.46666 135.46667"
   version="1.1"
   id="svg8"
   inkscape:version="0.92.3 (2405546, 2018-03-11)"
   sodipodi:docname="icon.svg">
  <defs
     id="defs2" />
  <sodipodi:namedview
     id="base"
     pagecolor="#ffffff"
     bordercolor="#666666"
     borderopacity="1.0"
     inkscape:pageopacity="0.0"
     inkscape:pageshadow="2"
     inkscape:zoom="0.70000001"
     inkscape:cx="322.19695"
     inkscape:cy="431.71381"
     inkscape:document-units="mm"
     inkscape:current-layer="g4595"
     showgrid="true"
     units="px"
     inkscape:window-width="1920"
     inkscape:window-height="1017"
     inkscape:window-x="-8"
     inkscape:window-y="-8"
     inkscape:window-maximized="1">
    <inkscape:grid
       type="xygrid"
       id="grid4518" />
  </sodipodi:namedview>
  <metadata
     id="metadata5">
    <rdf:RDF>
      <cc:Work
         rdf:about="">
        <dc:format>image/svg+xml</dc:format>
        <dc:type
           rdf:resource="http://purl.org/dc/dcmitype/StillImage" />
        <dc:title />
      </cc:Work>
    </rdf:RDF>
  </metadata>
  <g
     inkscape:label="Vrstva 1"
     inkscape:groupmode="layer"
     id="layer1"
     transform="translate(0,-161.53332)">
    <g
       id="g4577"
       transform="matrix(5.8938133,0,0,5.8938133,-18.033929,143.2535)"
       style="stroke-width:0.71826729;stroke-miterlimit:4;stroke-dasharray:none">
      <g
         id="g4587"
         transform="translate(1.9022615e-7,-0.18174202)">
        <g
           id="g4595"
           style="stroke:#0096e6;stroke-opacity:1;fill:#cbe5ff;fill-opacity:1">
          <rect
             style="fill:#ffffff;fill-opacity:1;stroke:none;stroke-width:1.2569679;stroke-linejoin:round;stroke-miterlimit:4;stroke-dasharray:none;stroke-dashoffset:0;stroke-opacity:1"
             id="rect829"
             width="22.984554"
             height="22.984554"
             x="3.0598063"
             y="3.2832687"
             rx="2.7832859"
             ry="2.7832859" />
          <g
             style="fill:#cbe5ff;fill-opacity:1;stroke:#0096e6;stroke-width:1.25696778;stroke-miterlimit:4;stroke-dasharray:none;stroke-opacity:1"
             id="g4557">
            <path
               inkscape:connector-curvature="0"
               style="fill:#cbe5ff;fill-opacity:1;stroke:#0096e6;stroke-width:4.75074434;stroke-miterlimit:4;stroke-dasharray:none;stroke-dashoffset:0;stroke-opacity:1"
               d="m 30,67.519531 c -2.770003,0 -5,2.229998 -5,5 v 10 5 h 5 50 5 v -5 -10 c 0,-2.770002 -2.229997,-5 -5,-5 z"
               transform="scale(0.26458333)"
               id="rect4520" />
          </g>
          <path
             style="fill:#cbe5ff;fill-opacity:1;stroke:#0096e6;stroke-width:28.00000381;stroke-linejoin:round;stroke-miterlimit:4;stroke-dasharray:none;stroke-dashoffset:0;stroke-opacity:1"
             d="m 198,296.99997 -29.5,31.85941 v 117.87695 h 175 V 328.85938 L 314,296.99997 Z"
             id="rect4579"
             transform="matrix(0.04489171,0,0,0.04489171,3.0598066,3.1015268)"
             inkscape:connector-curvature="0"
             sodipodi:nodetypes="ccccccc" />
          <path
             id="path4561"
             transform="matrix(0.04489171,0,0,0.04489171,3.0598064,3.2832688)"
             d="M 256 69.3125 A 117.87626 117.87626 0 0 0 138.12305 187.1875 A 117.87626 117.87626 0 0 0 256 305.06445 A 117.87626 117.87626 0 0 0 373.87695 187.1875 A 117.87626 117.87626 0 0 0 256 69.3125 z M 256 145.33203 A 41.85691 41.85691 0 0 1 297.85742 187.1875 A 41.85691 41.85691 0 0 1 256 229.04492 A 41.85691 41.85691 0 0 1 214.14258 187.1875 A 41.85691 41.85691 0 0 1 256 145.33203 z "
             style="fill:#cbe5ff;fill-opacity:1;stroke:#0096e6;stroke-width:28;stroke-miterlimit:4;stroke-dasharray:none;stroke-dashoffset:0;stroke-opacity:1" />
          <path
             style="fill:#ffffff;fill-opacity:1;stroke:#0096e6;stroke-width:28;stroke-miterlimit:4;stroke-dasharray:none;stroke-dashoffset:0;stroke-opacity:1"
             d="m 256,145.33203 c 23.11657,-2.8e-4 41.85662,18.7389 41.85742,41.85547 2.8e-4,23.11733 -18.74009,41.8577 -41.85742,41.85742 -23.11733,2.8e-4 -41.8577,-18.74009 -41.85742,-41.85742 8e-4,-23.11657 18.74085,-41.85575 41.85742,-41.85547 z"
             transform="matrix(0.04489171,0,0,0.04489171,3.0598064,3.2832688)"
             id="path856"
             inkscape:connector-curvature="0"
             sodipodi:nodetypes="ccccc" />
        </g>
      </g>
    </g>
  </g>
</svg>
